Coordinates
version=1
nRows=19
nColumns=24
inDegrees=yes

Units are S.I. units (second, meters, Newtons, ...)
Angles are in degrees.

endheader
time	pelvis_tilt	pelvis_list	pelvis_rotation	pelvis_tx	pelvis_ty	pelvis_tz	hip_flexion_r	hip_adduction_r	hip_rotation_r	knee_angle_r	ankle_angle_r	subtalar_angle_r	mtp_angle_r	hip_flexion_l	hip_adduction_l	hip_rotation_l	knee_angle_l	ankle_angle_l	subtalar_angle_l	mtp_angle_l	lumbar_extension	lumbar_bending	lumbar_rotation
      0.50000000	      4.55225319	      0.41981146	     -0.28184007	      0.58956688	      1.03282210	     -0.02162467	     19.60346451	     -4.37735245	    -10.18782456	    -19.93172982	      0.96137807	     -0.00000385	      0.00000000	    -14.42103838	      3.65450261	      0.02972068	     -2.12073922	      7.36234964	      0.00000011	      0.00000000	    -17.16851588	     -2.96116405	     -5.46642002
      0.51700000	      4.39734258	      0.98882801	     -0.19022125	      0.58825926	      1.02926244	     -0.02085026	     19.13389429	     -4.43602442	     -9.63976441	    -13.72411223	      0.68097854	     -0.00000282	      0.00000000	    -15.67801757	      4.16111474	      0.30089025	     -1.53592873	      7.80265107	      0.00000019	      0.00000000	    -17.04354591	     -3.44261751	     -5.66019413
      0.53300000	      4.22813444	      1.55698973	      0.13452656	      0.58722402	      1.02535513	     -0.02035800	     18.65144563	     -4.63694806	     -8.76675078	     -8.14656672	      0.69573023	     -0.00000186	      0.00000000	    -16.81297145	      4.58335712	      0.86201822	     -1.21226718	      8.36620151	      0.00000023	      0.00000000	    -16.87696002	     -3.83489065	     -5.80390869
      0.55000000	      4.13501747	      2.14102381	      0.04260357	      0.58675391	      1.02136861	     -0.01945820	     18.21741594	     -4.85885105	     -7.23605961	     -3.51348711	      0.93216265	     -0.00000102	      0.00000000	    -18.09927958	      5.12579547	      1.05713537	     -0.83003607	      8.83968947	      0.00000040	      0.00000000	    -16.74963074	     -4.24894503	     -5.84365985
      0.56700000	      4.05714178	      2.58943151	      0.03662639	      0.58587733	      1.01744463	     -0.01873358	     18.14368131	     -5.10985097	     -5.80307299	     -0.54344606	      1.43738173	     -0.00000069	      0.00000000	    -19.17985725	      5.49300200	      1.38739078	     -0.86680347	      9.46632852	      0.00000044	      0.00000000	    -16.66813114	     -4.49681239	     -5.68875151
      0.58300000	      3.91135189	      2.90967746	      0.68733064	      0.58426748	      1.01397586	     -0.01855372	     18.28569871	     -5.47736797	     -5.41197810	      0.97726376	      1.74297353	     -0.00000042	      0.00000000	    -19.73790985	      5.48959506	      2.27488494	     -1.73097532	     10.32345461	      0.00000067	      0.00000000	    -16.78515874	     -4.32442295	     -6.02224328
      0.60000000	      3.90317811	      2.92226103	      0.73457253	      0.58493597	      1.01124477	     -0.01667186	     18.54886707	     -5.30649989	     -4.89699027	      0.83105429	      1.96751862	     -0.00000052	      0.00000000	    -20.68299052	      5.27386107	      2.51949776	     -2.32980033	     10.89076806	      0.00000091	      0.00000000	    -16.63257966	     -4.11639408	     -5.94934390
      0.61700000	      3.80537451	      2.67215856	      1.02200632	      0.58552715	      1.00891116	     -0.01428955	     19.19831617	     -4.91815597	     -4.95120929	     -0.87747348	      1.70984299	     -0.00000094	      0.00000000	    -21.16972554	      4.66561194	      2.87447674	     -3.59832272	     11.61397357	      0.00000123	      0.00000000	    -16.54507375	     -3.58278003	     -5.97953072
      0.63300000	      3.76930346	      2.63246253	      1.55399867	      0.58647774	      1.00736359	     -0.01188680	     19.90883114	     -4.84068269	     -5.30273327	     -3.62310514	      1.06485955	     -0.00000152	      0.00000000	    -21.54782939	      4.16195342	      3.55248336	     -5.17612927	     12.09858907	      0.00000153	      0.00000000	    -16.52580453	     -3.23274280	     -6.27189420
      0.65000000	      3.64411037	      2.48136879	      2.04202093	      0.58796582	      1.00609217	     -0.00888577	     20.72121792	     -4.64813107	     -5.76009319	     -6.82808660	      0.05909952	     -0.00000215	      0.00000000	    -21.72152381	      3.54887097	      4.20757942	     -6.96795476	     12.41076679	      0.00000202	      0.00000000	    -16.31339519	     -2.83813416	     -6.63801993
      0.66700000	      3.50462028	      2.41916861	      2.43209808	      0.58992244	      1.00550801	     -0.00636948	     21.42434525	     -4.59598474	     -6.05178290	    -10.01795311	     -1.04165409	     -0.00000261	      0.00000000	    -21.66579591	      3.14215798	      4.83835377	     -9.18548972	     12.41167654	      0.00000240	      0.00000000	    -16.02733173	     -2.34457814	     -6.81985610
      0.68300000	      3.57992449	      2.37271681	      2.55637133	      0.59160786	      1.00567396	     -0.00354533	     22.04544740	     -4.50679038	     -6.00893627	    -13.58314264	     -1.64523717	     -0.00000300	      0.00000000	    -21.47084034	      2.88356756	      5.21934189	    -12.05896602	     12.11787018	      0.00000292	      0.00000000	    -15.92263693	     -1.87615105	     -6.71457294
      0.70000000	      3.85795894	      2.09659105	      2.85817999	      0.59499558	      1.00694911	     -0.00114050	     22.08788204	     -4.26002966	     -6.10175617	    -16.84937081	     -1.68204115	     -0.00000336	      0.00000000	    -21.21188134	      2.35617762	      5.59608853	    -15.51311250	     11.33025991	      0.00000362	      0.00000000	    -16.05066368	     -1.17745674	     -6.81497090
      0.71700000	      4.13330710	      1.84019172	      3.08273113	      0.59804553	      1.00872394	      0.00128285	     21.66009302	     -3.99407451	     -6.16924937	    -19.21567503	     -1.55582901	     -0.00000358	      0.00000000	    -20.33873136	      1.92481433	      5.68146744	    -19.94828611	     10.06169171	      0.00000448	      0.00000000	    -16.04506338	     -0.38976770	     -6.94007703
      0.73300000	      4.23939930	      1.70411544	      3.23748457	      0.60027616	      1.01027579	      0.00434639	     21.31839421	     -3.79768275	     -6.21264342	    -21.35104241	     -1.10150857	     -0.00000350	      0.00000000	    -18.33617800	      1.65255836	      5.35553884	    -25.90495902	      8.30392483	      0.00000565	      0.00000000	    -15.94801606	      0.08032413	     -6.79566282
      0.75000000	      4.33437427	      1.41463077	      3.31597835	      0.60292201	      1.01221290	      0.00746399	     20.51833822	     -3.39076138	     -6.42130729	    -22.66656990	     -0.42751680	     -0.00000300	      0.00000000	    -15.91443085	      1.13612832	      4.41396272	    -32.20025067	      5.52114212	      0.00000680	      0.00000000	    -15.79671503	      0.65316157	     -6.99531888
      0.76700000	      4.26029212	      1.06901586	      3.41766860	      0.60485283	      1.01397388	      0.01043689	     19.74442615	     -2.89868271	     -6.63416799	    -23.64645023	      0.56448367	     -0.00000279	      0.00000000	    -12.74299442	      0.34637603	      2.95014526	    -38.93176049	      1.89437207	      0.00000775	      0.00000000	    -15.55297727	      1.28411826	     -6.66381724
      0.78300000	      4.20128630	      0.49297469	      3.50065300	      0.60542740	      1.01574636	      0.01394806	     18.70736151	     -2.07242954	     -6.94426639	    -23.93701872	      1.48270337	     -0.00000241	      0.00000000	     -9.32257054	     -0.96304740	      1.22459054	    -45.42948671	     -2.00341871	      0.00000754	      0.00000000	    -15.39531148	      2.00631820	     -6.27600683
      0.80000000	      4.22289406	     -0.27383679	      3.40475517	      0.60595529	      1.01752530	      0.01764806	     17.54629214	     -0.94247676	     -7.05118280	    -24.09015246	      2.55309840	     -0.00000245	      0.00000000	     -6.00928796	     -2.69897174	     -0.69193489	    -51.36989434	     -5.39004033	      0.00000661	      0.00000000	    -15.30541781	      2.89622289	     -5.47098425
